<svg width="170" height="42" fill="none" xmlns="http://www.w3.org/2000/svg"><path d="M48.26.505H21.67V22.43h26.59V.505z" fill="#019E4A"/><path d="M34.894 22.17L23.498.506H0l20.974 41.031h5.612l8.308-19.366z" fill="#80BC89"/><path d="M69.691.505H46.194L35.064 22.34l8.5 19.195h5.612L69.691.505z" fill="#F0B11B"/><path d="M29.797 16.093h3.322l1.584 4.994 1.584-4.994h3.344l-2.618 7.26 1.584 4.202 3.916-11.484h3.938l-6.248 15.62H37.19l-2.486-6.116-2.464 6.116h-3.036l-6.226-15.62h3.916l3.938 11.484 1.54-4.202-2.574-7.26zm24.273 15.73c-1.158 0-2.214-.227-3.168-.682a7.897 7.897 0 01-2.442-1.782 8.481 8.481 0 01-1.584-2.552 8.146 8.146 0 01-.55-2.948c0-1.026.191-2.016.572-2.97a8.043 8.043 0 011.628-2.508 7.833 7.833 0 012.486-1.738c.954-.44 1.995-.66 3.124-.66 1.16 0 2.215.228 3.168.682a7.726 7.726 0 012.442 1.804 8.135 8.135 0 011.562 2.552c.367.954.55 1.922.55 2.904a7.669 7.669 0 01-.594 2.97 7.99 7.99 0 01-1.606 2.53 8.046 8.046 0 01-2.464 1.738c-.953.44-1.994.66-3.124.66zM50 23.903c0 .602.088 1.188.264 1.76.176.558.433 1.056.77 1.496.352.44.785.792 1.298 1.056.514.264 1.1.396 1.76.396.69 0 1.291-.139 1.804-.418a3.97 3.97 0 001.276-1.078 4.7 4.7 0 00.748-1.518 5.879 5.879 0 000-3.476 4.3 4.3 0 00-.792-1.496 3.723 3.723 0 00-1.298-1.034c-.498-.264-1.078-.396-1.738-.396-.689 0-1.29.14-1.804.418a4.035 4.035 0 00-1.276 1.056 4.78 4.78 0 00-.77 1.518A6.141 6.141 0 0050 23.903zm20.785 7.92c-1.158 0-2.214-.227-3.168-.682a7.894 7.894 0 01-2.442-1.782 8.478 8.478 0 01-1.584-2.552 8.144 8.144 0 01-.55-2.948c0-1.026.19-2.016.572-2.97a8.041 8.041 0 011.628-2.508 7.832 7.832 0 012.486-1.738c.954-.44 1.995-.66 3.124-.66 1.159 0 2.215.228 3.168.682a7.728 7.728 0 012.442 1.804 8.14 8.14 0 011.562 2.552c.367.954.55 1.922.55 2.904a7.669 7.669 0 01-.594 2.97 7.993 7.993 0 01-1.606 2.53 8.048 8.048 0 01-2.464 1.738c-.953.44-1.994.66-3.124.66zm-4.07-7.92c0 .602.088 1.188.264 1.76.176.558.433 1.056.77 1.496.352.44.785.792 1.298 1.056.514.264 1.1.396 1.76.396.69 0 1.29-.139 1.804-.418a3.973 3.973 0 001.276-1.078 4.7 4.7 0 00.748-1.518 5.879 5.879 0 000-3.476 4.3 4.3 0 00-.792-1.496 3.724 3.724 0 00-1.298-1.034c-.498-.264-1.078-.396-1.738-.396-.69 0-1.29.14-1.804.418a4.034 4.034 0 00-1.276 1.056c-.337.44-.594.946-.77 1.518a6.138 6.138 0 00-.242 1.716zm13.943 7.788v-15.62h5.83c1.29 0 2.42.206 3.388.616.968.411 1.775.968 2.42 1.672a6.75 6.75 0 011.474 2.486c.337.94.506 1.944.506 3.014 0 1.188-.183 2.266-.55 3.234a6.983 6.983 0 01-1.584 2.464c-.675.675-1.496 1.203-2.464 1.584-.953.367-2.017.55-3.19.55h-5.83zm9.944-7.832c0-.689-.095-1.312-.286-1.87a4.074 4.074 0 00-.792-1.474 3.498 3.498 0 00-1.298-.946c-.513-.22-1.093-.33-1.738-.33h-2.222v9.284h2.222c.66 0 1.247-.117 1.76-.352a3.513 3.513 0 001.276-.968 4.33 4.33 0 00.792-1.474 5.88 5.88 0 00.286-1.87zm16.54 6.292c-1.188 1.1-2.559 1.65-4.114 1.65a7.43 7.43 0 01-2.904-.572 7.534 7.534 0 01-2.398-1.65 7.86 7.86 0 01-1.606-2.53c-.396-.997-.594-2.09-.594-3.278 0-1.07.198-2.082.594-3.036a7.775 7.775 0 011.628-2.486 7.893 7.893 0 012.486-1.672 7.7 7.7 0 013.08-.616c1.452 0 2.721.308 3.806.924 1.085.602 1.899 1.43 2.442 2.486l-2.684 2.024a3.753 3.753 0 00-1.54-1.628 4.115 4.115 0 00-2.156-.594 3.64 3.64 0 00-1.65.374 3.612 3.612 0 00-1.254 1.012 4.604 4.604 0 00-.814 1.496 5.808 5.808 0 00-.286 1.848c0 .675.103 1.298.308 1.87.206.572.492 1.071.858 1.496a4 4 0 001.298.968 4.024 4.024 0 001.694.352c1.408 0 2.677-.652 3.806-1.958v-.484h-3.036V23.53h6.028v8.162h-2.992v-1.54zm5.377 1.54v-15.62h7.04a4.46 4.46 0 012.024.462 5.35 5.35 0 011.628 1.21 5.475 5.475 0 011.056 1.694c.264.631.396 1.27.396 1.914 0 .484-.058.954-.176 1.408-.117.44-.286.858-.506 1.254a4.82 4.82 0 01-.814 1.078c-.308.308-.66.572-1.056.792l3.432 5.808h-4.07l-2.992-5.038h-2.354v5.038h-3.608zm3.608-8.184h3.3c.426 0 .792-.198 1.1-.594.308-.41.462-.93.462-1.562 0-.645-.176-1.158-.528-1.54-.352-.38-.733-.572-1.144-.572h-3.19v4.268zm17.973 8.316c-1.159 0-2.215-.227-3.168-.682a7.88 7.88 0 01-2.442-1.782 8.466 8.466 0 01-1.584-2.552 8.138 8.138 0 01-.55-2.948c0-1.026.19-2.016.572-2.97a8.03 8.03 0 011.628-2.508 7.825 7.825 0 012.486-1.738c.953-.44 1.994-.66 3.124-.66 1.158 0 2.214.228 3.168.682a7.735 7.735 0 012.442 1.804 8.156 8.156 0 011.562 2.552 8.05 8.05 0 01.55 2.904 7.669 7.669 0 01-.594 2.97 8.009 8.009 0 01-1.606 2.53 8.059 8.059 0 01-2.464 1.738c-.954.44-1.995.66-3.124.66zm-4.07-7.92c0 .602.088 1.188.264 1.76.176.558.432 1.056.77 1.496.352.44.784.792 1.298 1.056.513.264 1.1.396 1.76.396.689 0 1.29-.139 1.804-.418a3.982 3.982 0 001.276-1.078c.337-.454.586-.96.748-1.518a5.879 5.879 0 000-3.476 4.3 4.3 0 00-.792-1.496 3.726 3.726 0 00-1.298-1.034c-.499-.264-1.078-.396-1.738-.396-.69 0-1.291.14-1.804.418a4.03 4.03 0 00-1.276 1.056c-.338.44-.594.946-.77 1.518a6.116 6.116 0 00-.242 1.716zm15.628-7.832l3.674 11.088 3.63-11.088h3.806l-5.918 15.62h-3.036l-5.984-15.62h3.828zm23.537 12.452v3.168h-10.978v-15.62h10.78v3.168h-7.172v3.036h6.16v2.926h-6.16v3.322h7.37z" fill="#fff"/></svg>